# xmcd
#
# Track frame offsets:
#	150
#	14887
#	25000
#	36610
#	48747
#	61782
#	75665
#	88179
#	109970
#	122667
#	138750
#	151205
#	162745
#	176005
#	189380
#	201312
#	210180
#	222137
#
# Disc length: 3147 seconds
#
# Revision: 3
# Processed by: cddbd v1.5.2PL0 Copyright (c) Steve Scherf et al.
# Submitted via: audiograbber 1.83.01
#
DISCID=010c4912
DTITLE=Various Artist - Country Tracks Vol 1
DYEAR=1997
DGENRE=Country
TTITLE0=Jeannie C Riley - Harper Valley PTA
TTITLE1=Jim Reeves - He'll have to go
TTITLE2=Ned Miller - do what you do do well
TTITLE3=Tammy Wynette - stand by your man
TTITLE4=Marty Robbins - devil woman
TTITLE5=George Jones - A good year for the roses
TTITLE6=Wanda Jackson - crazy
TTITLE7=Willie Nelson - city of new orleans
TTITLE8=Roger Miller - The last word in lonesome is me
TTITLE9=Bobby Bare - The gambler
TTITLE10=Kenny Rogers and The First Edition - reuben james
TTITLE11=Freddy Fender - before the next teardrop falls
TTITLE12=B. J. Thomas - mama
TTITLE13=Lynn Anderson - rose garden
TTITLE14=Stonewall Jackson - me and you and a dog named boo
TTITLE15=Sandy Posey - born a woman
TTITLE16=Johnny Cash - ring of fire
TTITLE17=Gene Autrey - riders in the sky
EXTD=ID3G: 2
EXTT0=
EXTT1=
EXTT2=
EXTT3=
EXTT4=
EXTT5=
EXTT6=
EXTT7=
EXTT8=
EXTT9=
EXTT10=
EXTT11=
EXTT12=
EXTT13=
EXTT14=
EXTT15=
EXTT16=
EXTT17=
PLAYORDER=
